<svg fill="none" height="99" viewBox="0 0 100 99" width="100" xmlns="http://www.w3.org/2000/svg"><g fill="#010101"><path d="m41.517 34.849h1.1498v-7.2465c0-.1035.0844-.1861.1861-.1861h10.7961c.1035 0 .1859.0843.1859.1861v7.2465h1.15v-7.2465c0-.7361-.6-1.3359-1.3359-1.3359h-10.7961c-.738 0-1.3359.5998-1.3359 1.3359z"/><path d="m45.6765 27.4126h5.1728c.4676 0 .8489-.3813.8489-.8489v-9.2859c0-.4677-.3813-.8491-.8489-.8491h-5.1728c-.4676 0-.8491.3814-.8491.8491v9.2859c0 .4676.3815.8489.8491.8489zm4.872-1.15h-4.5711v-8.6839h4.5711z"/><path d="m67.8254 29.2047c4.0171 0 7.285-3.2678 7.285-7.283 0-4.0153-3.2679-7.285-7.285-7.285-1.6503 0-4.2624 1.1596-7.7659 3.448-2.5607 1.6731-4.6957 3.3693-4.7168 3.3866l-.5634.4504.5634.4504c.0211.0172 2.1561 1.7133 4.7168 3.3866 3.5035 2.2884 6.1156 3.446 7.7659 3.446zm0-13.418c3.3828 0 6.135 2.7522 6.135 6.135s-2.7522 6.133-6.135 6.133c-2.6622 0-8.5155-4.0765-11.1909-6.133 2.6754-2.0565 8.5287-6.135 11.1909-6.135z"/><path d="m51.1061 21.3467h4.6937v1.1498h-4.6937z"/><path d="m84.5705 29.2557-69.8485 53.1527.7071.9067 69.8487-53.1526z"/></g><rect height="48.0832" rx="11.4" stroke="#000" stroke-width="1.2" width="48.9548" x="23.7895" y="34.6811"/></svg>