<svg fill="none" height="100" viewBox="0 0 100 100" width="100" xmlns="http://www.w3.org/2000/svg"><path d="m52.9798 51.9186-2.0727 2.3316v11.0242c0 6.2653-.0391 12.3407-.0898 13.8335-.0604 2.2865-.0975 2.7938-.3533 2.9625-.0547.0371-.1131.0509-.1718.0509-.0935 0-.1911-.0353-.2869-.0725-.1897-.0757-.2697-4.7497-.24-14.0217l.0625-13.7634-1.6256-1.7573c-2.9353-3.1798-7.51-8.3578-7.5764-8.7242-.0311-.1743.0333-.3349.1718-.4291.1582-.1076.3746-.1038.5562.008.1775.1017.9018.8717 4.36 4.792.8664.9757 2.1624 2.402 2.9529 3.2208l1.1982 1.2676v-10.2229l-3.2318-3.8615c-1.2706-1.5085-3.3198-3.9772-3.4095-4.1732-.0918-.2035-.0469-.4504.1111-.6188.1386-.1472.3338-.196.5095-.1276.2118.0792 2.8742 3.2622 3.1915 3.6416l2.7725 3.3155.084-7.1744c0-.0285.0244-1.0762.055-2.3909l.0007-.0301.0001-.0014c.0514-2.2115.12-5.1568.12-5.289 0-.5055.8996-.5113.8996.0549 0 3.648.1229 14.5918.1229 14.5918l2.5822-2.8976c3.4133-3.838 3.4251-3.838 3.788-3.6793.0955.0373.2342.1078.2713.2685.0936.39-.3766.9973-3.3471 4.3357l-3.3178 3.6969-.0878 5.3662c-.0468 2.68-.0644 4.4629-.0604 5.1349.3531-.3722 1.1182-1.2166 2.0296-2.2451.0586-.0666 5.9544-6.7004 6.376-6.7004.1855 0 .3708.1195.4742.3035.086.1569.0918.3274.0118.4547-.0665.1371-1.5438 1.7338-2.416 2.6722-1.214 1.2989-3.1969 3.4776-4.4187 4.8509z" fill="#010101"/><g clip-rule="evenodd" fill-rule="evenodd"><path d="m89.2002 49.3677c-.9973 5.2682-1.7466 7.5487-3.8213 11.612-4.2507 8.3149-9.7056 14.1296-16.6807 17.7756-3.3977 1.7889-5.1015 2.4667-10.1309 4.0242-4.4693 1.3871-6.4951 2.5764-7.4748 4.3944l-.3025.5623.2889 1.0286c.6207 2.1394.7571 4.2907.3356 5.2309-.2343.5211-.5347.8425-.8938.9543-.0956.0293-.1951.0451-.2967.0451-.2342 0-.484-.0805-.7435-.2371-1.1554-.7094-1.2823-2.8565-.3534-5.8934.3318-1.0618.3378-1.2244.2207-1.5142-.4411-1.1189-1.6805-2.2629-3.234-2.9858-.4702-.2135-2.2931-.8013-4.1569-1.3049-4.1609-1.15-5.97-1.8162-8.8-3.2346-6.3896-3.2209-10.3513-6.3183-14.1278-11.0498-2.4103-3.0111-3.6769-4.9291-5.0177-7.5956-1.5418-3.0915-2.4766-5.6818-3.0328-8.3951-.6167-2.9289-1.15346-7.2784-.6246-7.7053.2108-.1842.5192-.192 2.3674-.0549 4.276.3349 7.0278.8855 10.9155 2.1864 3.6358 1.2127 6.5556 2.5489 9.1844 4.2083l.9894.6231.0704-3.6578c.0898-4.3318.2322-5.6836.9425-9.0378 1.6531-7.7015 4.366-13.72 9.0771-20.1285 1.9224-2.6018 3.4486-4.2416 6.054-6.4986.2478-.2116.7222-.5681.9406-.5681.3787 0 3.1832 2.6664 4.0263 3.6421 1.6666 1.9572 3.9442 5.3093 5.8062 8.536 2.9469 5.0842 5.3473 11.6884 6.1124 16.8236.4547 3.0346.5465 7.7642.2031 10.5402-.0353.2529-.0586.4604-.0742.6035.1425-.0824.3787-.2215.7436-.4449 2.8649-1.7651 7.6933-3.646 11.2298-4.3766 2.1817-.4487 3.8193-.5622 6.7486-.4742 1.4911.0511 2.8807.0882 3.0562.0882.2323-.0118.4276.0138.5525.1586.2107.2449.1638.7192-.0976 2.1218zm-38.8004 36.856c.3707-.6151 1.7329-1.8513 2.6482-2.4037 1.0305-.6309 2.7069-1.2814 6.1867-2.3983 3.956-1.2615 4.3033-1.3969 7.4104-2.9113 7.9314-3.8909 13.2302-9.2882 17.7149-18.04 1.1945-2.2942 2.0162-4.3022 2.5938-6.3222.4587-1.5811 1.2647-5.3818 1.2647-5.8383 0-.1488 0-.1606-1.1027-.2333-4.5453-.3055-7.9138.1745-12.428 1.7653-2.2638.8034-5.2265 2.2276-6.8911 3.3109l-1.0949.7191-.2929 1.4107c-.5289 2.6409-1.8949 6.3789-3.1753 8.6929-2.0454 3.7164-4.4626 7.4252-6.9531 8.7294-2.8146 2.1166-5.5461 2.9868-5.9309 2.7626-.1212-.3194-.5366-.7161-.046-1.0735.1676.0175 1.6334.0854 4.7618-2.2379.8764-.4527 3.0784-2.4953 4.3646-4.3095l.0038.002c4.0342-5.6301 6.1627-10.7129 6.5898-17.5129.1505-2.3968.1288-5.3272-.0869-7.3451-.4938-4.698-2.1098-9.9662-4.6722-15.2364-1.8327-3.7791-5.3514-9.1924-7.5334-11.5787-.3513-.3918-1.1806-1.197-1.8189-1.7887l-1.1144-1.0227-1.5573 1.4439c-1.8092 1.6869-2.8554 2.8741-4.4772 5.0782-5.2206 7.0844-8.4291 15.0817-9.5375 23.7726-.2402 1.9649-.3787 6.1009-.2656 7.9034l.0976 1.3009.0044.0035-.0158.0123c.3974 5.2938 2.1248 10.1448 5.0838 14.5897 1.8267 3.8929 8.072 6.9254 10.1734 6.9254.9929.9031.5158 1.1506-.2983 1.0547-1.8031-.2125-7.0127-2.3127-9.0984-5.0199-1.7213-1.8806-4.2662-6.4829-5.2362-9.4706-.6245-1.916-1.2198-4.3278-1.5165-6.138l-.2166-1.342-1.3954-.8836c-4.6722-2.9564-10.9135-5.286-16.2884-6.0735-1.4032-.1958-3.8993-.4447-4.7034-.4447h-.3981l.078 1.154c.1015 1.5555.5758 4.4924 1.011 6.2869.5484 2.2746 1.9301 5.7131 3.2885 8.1758 1.8053 3.2873 4.6722 7.0157 7.6718 9.974 2.7909 2.7253 5.9291 4.8686 10.492 7.1646 3.0251 1.5185 3.9893 1.8554 10.3242 3.6109 2.8787.7994 5.008 2.106 5.9973 3.6794l.2265.3642.162-.2625zm.1327 5.3036c-.1289-1.1325-.2909-1.9436-.4003-2.2885-.2068.6036-.4937 2.2003-.4937 3.0114 0 1.0853.2031 1.4242.322 1.5282.0566.0489.1133.0684.1933.0567.3102-.0412.5718-.668.3787-2.3078z" fill="#010101"/><path d="m40.6965 55.3043c.2218-.2461.6012-.2658.8473-.0439l8.7883 7.9229 8.4081-7.9142c.2412-.2271.621-.2156.8481.0257s.2156.621-.0257.8482l-9.213 8.6718-9.6093-8.6631c-.2461-.2219-.2657-.6013-.0438-.8474z" fill="#000"/></g></svg>