<svg fill="none" height="99" viewBox="0 0 100 99" width="100" xmlns="http://www.w3.org/2000/svg"><g fill="#010101"><path d="m25.9322 42.9532c-.1473.8646-.3404 1.9978-.2192 3.6751l-.002-.002c.1437 1.9856.9104 4.3622 2.3096 6.6715 2.2806 3.8007 6.2958 6.16 11.3039 6.6411.5041.0478 1.0024.0728 1.493.0728 2.6757 0 5.1422-.7265 7.3559-2.1695 1.3607-.8779 1.6061-1.0772 2.9209-2.367 2.2845-2.2328 3.4995-4.6554 3.9404-7.8524.3311-2.3264-.1117-5.3682-1.3157-9.0401 0 0-.2205-.2395-.5398.0653s-.314.7547-.314.7547c.373 1.2305.7764 2.8738.9947 4.3199.4198 2.8559.0363 5.4815-1.1385 7.8063-.7015 1.38-1.3434 2.2233-2.6391 3.4689-2.3669 2.2559-5.1461 3.5841-8.2585 3.9444-3.1587.3508-7.5611-.9181-10.0256-2.8863-.4237-.3489-1.1002-1.0292-1.5085-1.5218-1.4526-1.7537-2.273-3.283-2.9285-5.4604-.3545-1.1768-.9737-4.8144.4255-9.1841 1.2132-3.7892 3.8504-9.0559 8.2432-16.0457l.2683-.4293c.6478-1.0407 1.6272-2.6181 2.3843-3.86l1.5046-2.4341.2893.3795c1.1096 1.4566 3.9559 5.4239 4.5231 6.2863 1.1556 1.7843 3.7219 6.2193 4.7339 8.182.9085 1.7536 1.0637 2.0067 1.4241 2.0067.1285 0 .3066-.0174.4005-.1687.1439-.232.0211-.6383-.525-1.7402-.9411-1.9148-4.0172-7.2294-5.3129-9.1709-.575-.8587-2.961-4.1801-4.2587-5.9223-.663-.895-.9926-1.2017-1.3069-1.2151h-.0194c-.2145 0-.3756.1514-.4791.2683-.1341.1457-.7072 1.0369-1.2035 1.8687-.5463.8835-1.7134 2.7579-2.6258 4.1895-.088.1402-.1772.2822-.2667.4247-.7862 1.2518-1.5984 2.545-1.8377 2.9562-.1723.2967-.5348.8929-.9231 1.5317-.0909.1494-.1831.3012-.2747.452l-.3124.5157c-1.0848 1.788-3.7622 7.0376-4.4752 8.7741-.7589 1.8437-1.4872 4.2874-1.7594 5.9452-.0143.0869-.0295.1766-.0453.2693z"/><path d="m50.1284 40.0563-.0289.0343-.0559.0696c-8.8956 11.0711-9.1501 11.3878-9.5135 11.3878h-.0306c-.2646 0-.9718-.6402-4.7322-4.6054-3.888-4.0909-3.4752-3.6825-3.3618-3.5703.0142.0141.0237.0235.0194.0188-.5358-.5815.438-1.0403.7359-.7302.8472.8817 3.4 3.5169 3.4 3.5169 2.1043 2.2137 3.6089 3.7315 3.9424 4.0191.1841-.2071.9372-1.1173 1.9991-2.4476 1.0617-1.3032 2.8154-3.4784 3.927-4.866 1.0637-1.3148 3.0915-3.8274 4.4924-5.5659 2.8647-3.5483 4.4217-5.302 4.6708-5.2609.1246.0172.3048.0574.3698.2222.117.2913-.1687.7572-1.4546 2.3709-1.4546 1.8063-2.9306 3.5957-4.3793 5.4067z"/><path d="m12.2363 75.6786c-.0039.9813.7876 1.8476 1.3435 2.365 5.8091 5.441 9.0406 7.9652 14.1424 10.4684 5.3091 2.6026 11.03 4.0631 17.485 4.4655.7915.05 1.5658.0748 2.3267.0748 3.6741 0 7.0626-.5846 10.9417-1.8572 6.2118-2.0487 13.7496-6.9226 18.7539-12.13 2.9534-3.0646 4.044-4.6209 7.2868-10.407.828-1.493 1.8859-3.4824 2.3555-4.435 1.2688-2.5376 1.2189-3.1548-.3757-4.7111-1.0464-1.0328-2.3075-1.8071-4.5039-2.7654-1.8419-.7935-3.4249-1.2363-5.2879-1.4854-4.9658-.6824-9.8052.3987-14.7787 3.2926-3.3847 1.9702-4.9447 3.1624-10.4397 7.9711-2.4283 2.1121-3.724 3.1067-4.4714 3.4326-1.3128.5845-4.0247.9028-7.6491.9028-.0689 0-.1378 0-.205 0-4.1878-.0135-6.7024-.343-12.2317-1.612-4.6668-1.0637-5.7898-.9928-7.0644.4524l-.4428.5098-.8433-.138c-1.286-.2165-2.4456-.09-3.1047.345-.6653.4389-1.1981 1.5391-1.1194 2.3076l.0383.3832-.5385.1592c-1.1863.3391-1.612 1.2993-1.6176 2.4111zm62.63-19.5416c1.355.1226 3.3138.4581 4.2778.7342 1.2707.3621 3.699 1.3991 4.8126 2.0506 1.5792.9411 2.8039 2.3228 2.8039 2.8807 0 .8087-4.4445 8.983-6.8824 12.4252-4.1915 5.9413-12.7989 12.5267-20.0206 15.3191-4.0976 1.5889-7.3272 2.2559-11.5187 2.3804-3.7585.1131-7.8696-.3717-11.9-1.3971-3.4844-.8989-5.9702-1.8265-8.868-3.3061-4.2624-2.1811-7.3118-4.4044-11.6568-8.498-.9141-.8664-1.8226-1.6753-1.9702-1.819-1.127-1.1097-.4063-2.3247.1285-2.5395 1.0828-.4311 2.2308-.1263 5.328 1.3474 7.4939 3.5763 11.6433 5.008 16.45 5.6769 6.5183.9124 13.7535-.3335 19.85-3.4135 3.0072-1.5313 6.1792-3.628 6.137-4.4963-.0039-.0843-.0422-.2415-.2548-.3239-.1228-.0478-.3354-.0306-1.3378.7839-.5674.4659-1.4433 1.1079-1.9511 1.4298-1.4489.9372-5.2611 2.7713-6.917 3.3272-5.79 1.9319-9.5561 2.1887-12.2124.8337-1.1041-.5557-1.9493-1.4565-2.0528-2.1907-.0383-.2721.0307-.4943.2052-.6574.115-.1054.7952-.4715 1.6922-.8778 3.2391-1.4506 5.3148-2.5874 7.6626-4.1895 2.6544-1.8111 2.8174-1.9435 8.7665-7.0646 2.455-2.1083 4.7013-3.7048 7.2848-5.1785 2.9304-1.6541 5.0598-2.4496 7.8524-2.9383 1.1326-.1954 2.6065-.32 3.6376-.32.2472 0 .4696.0057.6535.0211zm-59.4159 16.0361c.1763-.6211.5328-.9756 1.1211-1.1135.8952-.2089 2.2022-.021 3.6685.5213 7.2943 2.6909 12.6398 3.9979 16.3426 3.9979h.5385l-.1879.1361c-.7032.508-.9639.9065-.9639 1.4778 0 1.0443 1.1537 2.4474 2.6813 3.2619l.2013.1074-.7724-.0441c-2.1082-.113-5.2152-.6746-7.3884-1.3339-2.3192-.7015-6.3133-2.3498-10.6792-4.4102-1.773-.8374-3.3369-1.4431-4.1821-1.6213-.1839-.0422-.3085-.1209-.3794-.2396-.0959-.1611-.0978-.4102 0-.7398zm5.0522-1.6656c.0419-.1361.4676-.5731.9161-.755.4446-.1879 1.3224-.2933 1.8341-.2185.2126.0267 2.1676.4617 3.6185.7856 5.4891 1.2363 7.4613 1.5046 11.7217 1.5929 2.3863.0382 3.6052.0037 4.8337-.1381.6631-.0689 1.0772-.1074 1.3339-.1304-.7493.4582-2.5797 1.4874-3.7545 2.0815l-1.4489.7246h-2.2483c-3.923 0-7.375-.6768-12.7317-2.4935-3.2603-1.1078-3.9483-1.3454-4.0746-1.4491z"/></g></svg>