<svg fill="none" height="99" viewBox="0 0 100 99" width="100" xmlns="http://www.w3.org/2000/svg"><g fill="#010101"><path d="m32.9395 33.225c.003-.355-.2824-.6472-.6374-.6472h-.0679c-.3199 0-.579.2595-.5786.5794l.0075 5.0093c.0306 6.8076.3698 10.978 1.1326 13.9489.688 2.7272 2.252 5.9376 3.9809 8.18 1.9415 2.5202 5.8858 5.5907 9.8108 7.6394l1.6331.8491-1.4068.7819c-2.066 1.1748-3.655 2.2998-5.861 4.1553-3.2966 2.7865-4.9772 4.7376-6.2 7.2004-2.0298 4.0728-2.5396 5.9606-2.7522 13.0674.4502.1724.8987.3563 1.33.573.0135-.37.0287-.7361.0441-1.0715l.0863-2.2691 13.2761.0306c12.6724.0442 13.4122-.0076 13.6787-.1743.1265-.0787.205-.207.2222-.3624.0193-.1668-.0344-.3431-.1379-.4485-.2876-.2874-.5176-.295-11.9863-.295h-14.9397v-.4254c0-1.3839.5384-3.6339 1.4087-5.8687l.4389-1.102 10.0178-.0287c.0748-.0019 7.3502-.0461 9.8322-.0461.3852 0 .573-.255.5882-.5078.0174-.2856-.1819-.6152-.5845-.6633-.3085-.0363-4.0037-.1571-9.9144-.1571h-9.2265l.3835-.7207c.5882-1.1174 3.3463-4.0382 5.5637-5.8954 1.838-1.5389 4.3717-3.2639 6.3017-4.2874l1.3167-.7013 2.6105 1.3359c3.86 1.9606 6.1943 3.81 8.6091 6.8267 2.9287 3.6798 4.1091 6.5413 4.6746 11.3424.1189 1.0024.1841 2.4243.2128 4.9161.0633-.0124.1268-.0264.1901-.0404l.0169-.0038c.0627-.0141.1295-.0277.1985-.0419.2599-.0532.5527-.1132.7904-.2283-.0709-3.1508-.1859-5.9126-.3048-6.503-.8874-4.5231-2.0467-6.9994-4.9735-10.5987-2.5241-3.0876-4.9926-5.0213-8.8067-6.8978l-1.7729-.8776.8818-.4696c2.1926-1.1826 4.343-2.5128 5.6098-3.473 1.5658-1.1748 3.72-3.3905 5.1269-5.2648 1.2859-1.702 2.7657-4.6361 3.3002-6.5374.8472-2.9765.9009-3.6435.9622-11.9155.0346-3.2045.0461-7.8445-.0382-8.1223-.0748-.345-.2607-.4755-.6057-.437-.4774.0633-.4791.115-.5272 2.7617l-.0306 2.4513h-13.257c-5.4067 0-13.5041.0327-13.713.1016-.2033.0689-.3565.3258-.3565.6017 0 .2761.1532.5348.3565.602.2089.0708 8.1454.1015 13.713.1015h13.255v6.1637l-13.3163.0287c-.1054.0019-10.4972.0461-13.4622.0461-.4139 0-.6284.2778-.6284.55 0 .2721.2145.5463.6284.5463 2.6729 0 10.4184.0328 12.7931.0429.43.0019.6839.0029.6998.0029l13.3163.0309-.092.9504c-.1378 1.5026-.3411 2.7044-.7206 4.2857l-.295 1.2361h-22.0637c-.487 0-.7552.2837-.7648.5654-.0115.2702.2185.5635.7532.6037.117.0096 5.079.1111 10.9246.1859l10.61.1208-.6093 1.2055c-.3605.7322-1.1768 2.0374-1.8246 2.9113-2.7696 3.7143-5.2341 5.7017-10.5509 8.5059l-1.5467.8258-1.9318-.9965c-3.8523-2.0085-5.6865-3.3022-8.1743-5.7593-3.2926-3.2468-5.0654-6.7348-5.928-11.6605-.3941-2.2327-.7342-12.2573-.6996-16.3573 0-.0023.0001-.0047.0001-.007z"/><path clip-rule="evenodd" d="m63.9587 14.4628c1.0654 0 1.5485.0115 1.8187.299l-.0037-.0115c.2644.2817.238.7675.1944 1.5681l-.0009.0169c-.2185 3.7221-3.1318 9.0136-6.6313 12.0475-2.0394 1.7922-4.1283 2.7581-7.2083 3.3407l-1.1978.2224-.0125 3.4033c-.0013.3512-.2863.6352-.6375.6352-.3547 0-.6408-.2897-.6399-.6444.0031-1.2652-.027-2.2754-.0997-2.802-.0524-.3908-.2646-.6126-.6363-.665-3.0052-.4102-7.4267-2.9343-10.5124-6.0045-2.9306-2.9133-5.1767-6.8807-6.3267-11.1738-.3642-1.3819-.4063-1.8399-.4063-4.456-.0172-2.65259.0171-3.04359.2874-3.46713l.0039-.00385c.3278-.47148.4445-.49063 1.2324-.39098 2.2213.28174 5.2476 1.45852 7.3558 2.86528 1.539 1.03118 4.7416 4.22608 5.7113 5.69608 2.0816 3.1911 3.404 7.2121 4.1629 12.6495.1745 1.1672.3104 2.3594.3104 2.7081v.4006l.5407-.0806c3.3443-.5059 5.7458-1.7 8.0304-3.9998 2.7924-2.8233 4.9639-6.9611 5.4048-10.2979l.0824-.5903h-.9889c-2.7331 0-6.0068 1.7537-8.3392 4.4675-1.0426 1.1941-2.2578 3.3331-2.9515 5.2018-.2972.7704-.4504 1.0656-.9085 1.1078-.1743.0209-.3335.0324-.4485-.0672-.1189-.1054-.1284-.2798-.1284-.4963 0-1.033 1.6732-4.4504 2.9841-6.091 2.6698-3.3578 6.392-5.3703 9.9587-5.3875zm-14.7272 16.0705c.0768 0 .1572-.0037.1802-.0287v-.0039c.1266-.1494-.0134-1.104-.2471-2.6544-.8281-5.5448-2.3344-9.8972-4.3546-12.5881-2.5567-3.4288-5.6233-5.69803-9.3702-6.93614-.7896-.25873-1.6731-.49256-2.0009-.55006l-.46-.06706-.092 1.01769c-.1513 1.48537.0001 3.94437.3203 5.16327.6841 2.7177 2.0028 5.6597 3.6221 8.0726 1.8094 2.7139 5.0579 5.5161 8.2759 7.1413 1.3128.665 3.6165 1.4335 4.1263 1.4335z" fill-rule="evenodd"/></g></svg>